<svg xmlns="http://www.w3.org/2000/svg" viewBox="0 0 224.59 213.6">
<defs>
<style>.cls-1{fill:#0b4f6c}</style>
</defs>
<path class="cls-1" d="M67.33 209.25h-1.28v-11.77l-4.14 11.77h-1.4l-4.18-11.76v11.77h-1.31v-15.4h1.29l4.88 13.5 4.86-13.52h1.28zM79.52 202.25v2.91a4.42 4.42 0 01-1 3.06 4 4 0 01-3.19 1.21 4.09 4.09 0 01-3.28-1.18 4.42 4.42 0 01-1.1-3v-3a3.88 3.88 0 014.26-4.32 4.22 4.22 0 013.17 1.15 4.37 4.37 0 011.14 3.17zm-1.28 3.13v-3.13q0-3.19-3-3.19c-2 0-3 1.07-3 3.2v3.12a2.93 2.93 0 00.82 2.14 3 3 0 002.23.8 2.89 2.89 0 002.18-.8 3 3 0 00.77-2.15zM84.1 208.52l-.36.95a3.3 3.3 0 01-1.83-1.12 3.45 3.45 0 01-.58-2.06v-12.5h1.29v4.37h2.76l-.55 1.17h-2.27v6.95a2.1 2.1 0 001.54 2.24zM96.22 202.25v2.91a4.51 4.51 0 01-1 3.06 4 4 0 01-3.19 1.21 4.1 4.1 0 01-3.24-1.21 4.38 4.38 0 01-1.09-3v-2.97a3.88 3.88 0 014.21-4.35 4.22 4.22 0 013.17 1.15 4.29 4.29 0 011.14 3.2zm-1.31 3.08v-3.08q0-3.18-3-3.18c-2 0-3 1.07-3 3.2v3.12a2.89 2.89 0 00.82 2.13 3 3 0 002.23.81 2.88 2.88 0 002.18-.8 3 3 0 00.77-2.2zM109.91 209.12h-4.78V193.7h4.31a5.41 5.41 0 014 1.35 5 5 0 011.38 3.63v6q.01 4.42-4.91 4.44zm3.58-4.19v-6.47a3.26 3.26 0 00-1.16-2.74 4.17 4.17 0 00-2.66-.9h-3.27v13.2h3.12c2.7 0 4.01-1.03 4.01-3.09zM121.25 208.25a7.45 7.45 0 003.36-.91l.5.94a7.2 7.2 0 01-3.69 1.05c-2.67 0-4-1.06-4-3.21v-4.51a3.46 3.46 0 011.15-2.77 4.64 4.64 0 013.07-1 4.28 4.28 0 013 1 3.52 3.52 0 011.07 2.72v2.86l-7 .39v1.34a1.83 1.83 0 00.9 1.71 3.11 3.11 0 001.64.39zm3.14-5v-1.91a2.23 2.23 0 00-.53-1.55 2.39 2.39 0 00-1.1-.77 4.2 4.2 0 00-1.15-.16 3.25 3.25 0 00-2.09.66 2.47 2.47 0 00-.82 2.07v1.94zM129.66 209.07h-1.28v-15.4h1.29zM134.8 194.18a.68.68 0 01-.23.51.77.77 0 01-1.31-.52.67.67 0 01.23-.51.78.78 0 01.55-.22.73.73 0 01.54.22.74.74 0 01.22.52zm-.1 14.88h-1.29v-11h1.29zM141.91 209.04h-1.77l-3.54-11h1.31l3.08 9.74 3.06-9.75h1.35zM149.81 208.25a7.38 7.38 0 003.35-.91l.51.95a7.31 7.31 0 01-3.69 1c-2.67 0-4-1.06-4-3.2v-4.51a3.46 3.46 0 011.15-2.78 4.62 4.62 0 013.07-1 4.23 4.23 0 013 1 3.5 3.5 0 011.08 2.72v2.86l-7 .39v1.34a1.84 1.84 0 00.9 1.72 3.2 3.2 0 001.63.42zm3.14-5v-1.91a2.28 2.28 0 00-.53-1.55 2.39 2.39 0 00-1.1-.77 4.2 4.2 0 00-1.15-.16 3.23 3.23 0 00-2.09.66 2.49 2.49 0 00-.82 2.07v1.94zM161.91 199.09a7.52 7.52 0 00-1.77-.21 3.35 3.35 0 00-1.62.39 1.21 1.21 0 00-.72 1.11v8.63h-1.28v-11h1.29l-.07.77a4.17 4.17 0 012.84-.95 9.29 9.29 0 011.68.17zM169.45 213.6l-.35-.95a2.19 2.19 0 001.53-2.29v-2.46a3.32 3.32 0 01-3 1.34q-4.37 0-4.38-4.12v-7.15h1.25v7.37a2.64 2.64 0 00.81 2.1 3.22 3.22 0 002.2.68 3.6 3.6 0 002.26-.68 2.53 2.53 0 00.87-2.12v-4.33a6.32 6.32 0 01.22-2.14 2.28 2.28 0 011.45-1.1l.34.84c-.52.22-.78.73-.77 1.54v10.18a3.58 3.58 0 01-.55 2.12 3.41 3.41 0 01-1.88 1.17zM71.33 183.81a5 5 0 01-1.45.65 7.07 7.07 0 01-1.91.25 6.26 6.26 0 01-2.25-.34 1.35 1.35 0 01-.94-1.16c-.26-2.2-.47-4-.65-5.33s-.28-2.55-.32-3.57h-.19q-.6 2.2-1 4c-.3 1.21-.58 2.39-.84 3.53s-.54 2.31-.83 3.48-.63 2.47-1 3.89a9 9 0 01-1.4.32 10.5 10.5 0 01-1.66.13 5.07 5.07 0 01-2.57-.52c-.56-.35-.74-1-.54-1.91l5.26-19.08a5 5 0 011.6-1 7.1 7.1 0 013.09-.57 6.18 6.18 0 013.1.62 2.75 2.75 0 011.29 2c.1.6.21 1.29.32 2.06s.2 1.57.3 2.39.18 1.64.27 2.45.16 1.54.23 2.19h.19q1.62-3.14 3.19-6.08t2.72-4.96a7.85 7.85 0 011.61-.51 9.83 9.83 0 012.1-.21 6.86 6.86 0 013 .55 1.63 1.63 0 011.07 1.55c0 .5-.06 1.27-.16 2.3s-.24 2.2-.39 3.5-.32 2.66-.5 4.11-.36 2.84-.53 4.17-.34 2.56-.5 3.67-.3 2-.4 2.56a6.36 6.36 0 01-1.51.54 9 9 0 01-1.89.17 5 5 0 01-2.39-.49c-.61-.32-.84-1-.68-1.9q.64-4.08 1.29-7.34t1-5.46h-.2c-.47 1-1.11 2.2-1.92 3.67s-1.81 3.38-3.01 5.68zM85.98 178.01a15.24 15.24 0 012.08-5.16 14.45 14.45 0 017.83-6.06 16 16 0 015-.79 13.09 13.09 0 014.7.79 8.52 8.52 0 013.42 2.3 8 8 0 011.9 3.76 12.49 12.49 0 01-.16 5.16 16.24 16.24 0 01-2.06 5.18 14.14 14.14 0 01-3.42 3.78 14.77 14.77 0 01-4.42 2.3 16.61 16.61 0 01-5.09.78 13.29 13.29 0 01-4.75-.8 8.28 8.28 0 01-3.4-2.34 8.18 8.18 0 01-1.76-3.78 12.48 12.48 0 01.13-5.12zm7 0c-.49 2.27-.38 4 .34 5.09a3.87 3.87 0 003.51 1.68 6.08 6.08 0 004.27-1.68 9.56 9.56 0 002.54-5.09c.49-2.24.38-3.93-.33-5a3.84 3.84 0 00-3.52-1.68 6.12 6.12 0 00-4.25 1.66 9.37 9.37 0 00-2.53 5.02zM115.76 189.49a3 3 0 01-2.46-.93 2.9 2.9 0 01-.42-2.55l4.18-19.33 1.42-.21a13.09 13.09 0 011.82-.13 7.91 7.91 0 011.56.13 2.42 2.42 0 011 .47 1.52 1.52 0 01.5.93 4.26 4.26 0 01-.11 1.57l-3.15 14.81h8.95a4.1 4.1 0 01.27 1.1 4.43 4.43 0 01-.08 1.44 3.57 3.57 0 01-1.12 2.12 3 3 0 01-1.89.61zM135.79 189.49a3 3 0 01-2.45-.93 2.84 2.84 0 01-.42-2.55l4.18-19.33 1.41-.21a13.34 13.34 0 011.83-.13 7.73 7.73 0 011.55.13 2.32 2.32 0 011.05.47 1.47 1.47 0 01.5.93 4.22 4.22 0 01-.1 1.57l-3.2 14.81h8.94a3.46 3.46 0 01.27 1.1 4.42 4.42 0 01-.07 1.44 3.53 3.53 0 01-1.13 2.12 3 3 0 01-1.89.61zM162.06 189.25a12.56 12.56 0 01-1.38.22 13.65 13.65 0 01-1.78.12 4.43 4.43 0 01-2.57-.58c-.51-.39-.63-1.21-.37-2.45l1.1-5c-.45-.92-.93-2-1.45-3.07s-1-2.27-1.48-3.44-.9-2.32-1.28-3.46a26.08 26.08 0 01-.85-3.12 7.4 7.4 0 011.66-1.24 4.62 4.62 0 012.29-.56 4 4 0 012.35.6 4.27 4.27 0 011.33 2.24l1.89 6.25h.23c.53-.77 1-1.48 1.41-2.11s.82-1.27 1.22-1.91.81-1.3 1.25-2l1.49-2.38a8.57 8.57 0 011.67-.52 8.66 8.66 0 011.69-.19 3.23 3.23 0 012.17.69 2 2 0 01.51 2.08 4.71 4.71 0 01-.43 1.08 15.67 15.67 0 01-1.32 1.93q-1 1.29-2.81 3.5c-1.21 1.47-2.85 3.39-4.89 5.76zM21.58 78.32a2.08 2.08 0 00-2.07-2.07H2.08a2.08 2.08 0 100 4.15h17.43a2.07 2.07 0 002.07-2.08z"/>
<path class="cls-1" d="M224.59 124.55a27.1 27.1 0 00-27.1-27.1c-.64 0-1.27 0-1.9.08l-13.84-30a7.65 7.65 0 00-1.49-2.15 4.41 4.41 0 00-3.88-2.34h-1a6.84 6.84 0 00-1.43 0h-7.5l-.68-5.21a6.12 6.12 0 00-6.1-6.12h-17.94c3.74-5.48 6.9-9.69 8-10.08h.32a20.88 20.88 0 0020.17-15.74h6a17 17 0 00-6.1-10.57A20.89 20.89 0 00150.08 0a20.8 20.8 0 00-13.49 36.66c-26.86.49-41.82 12-46.18 16a6.14 6.14 0 00-2.86 5.18v.41a6.12 6.12 0 006.1 6.11h6.14a123.07 123.07 0 00-13.26 21h-7.51a4.08 4.08 0 00.45-1.25l7.58-43.73a3.53 3.53 0 00-3.7-4.13l-41.44-.26a5.28 5.28 0 00-5.12 4.09l-7.57 43.73a3.63 3.63 0 00.06 1.58H17.47a2.75 2.75 0 00-2.75 2.75v.3a2.75 2.75 0 002.75 2.75h144.8C143.14 75.76 124 79.46 124 79.46s4.25-7 9.32-14.92h8.48a4.37 4.37 0 00-1.12 2.91 4.45 4.45 0 004.43 4.43h21.8a7.71 7.71 0 00.64 2.19l8.85 19.18-3.41 3.41H142.8a1.86 1.86 0 100 3.71h27.76a1.54 1.54 0 011.16 1.48v.19a1.52 1.52 0 01-.51 1.13h-51.37a2.61 2.61 0 000 5.22h41.43l-.16.15h.2a1.76 1.76 0 011.75 1.75v.2a1.76 1.76 0 01-1.75 1.76h-1.4a2.69 2.69 0 00-.57-.07h-54.2a2.61 2.61 0 000 5.22h51.28a2.5 2.5 0 011 2 2.56 2.56 0 01-2.56 2.56l-61.15-.55a3 3 0 00-3 3v.78a3 3 0 003 3h53.51a2.72 2.72 0 00.95-.18 1.75 1.75 0 011.25 1.66v.21a1.73 1.73 0 01-.84 1.48h-62.6a28.18 28.18 0 01-1.35 5.08 32.25 32.25 0 01-1.87 4.17h23.66l-.13.13h55.1c-2 11 4.81 19.55 16.67 19.87 13.28.35 27.84-9.77 32.53-22.61a20.46 20.46 0 00.93-12.11h13c.02-.47.07-.9.07-1.34zm-29.76 13c-1.61 4.42-6.63 7.91-11.21 7.79s-7-3.81-5.37-8.24 6.64-7.91 11.22-7.79 6.98 3.8 5.36 8.23z"/>
<path class="cls-1" d="M198.01 89.11a8 8 0 001.3-.13V72.57a8 8 0 00-1.3-.13 7.84 7.84 0 00-7.82 7.81v1a7.84 7.84 0 007.82 7.86zM110.07 108.4a2.56 2.56 0 002.54-2.55 2.56 2.56 0 00-2.54-2.54h-19a2.55 2.55 0 00-2.54 2.54 2.55 2.55 0 002.54 2.55zM130.78 99.25a1.57 1.57 0 100-3.13h-8a1.57 1.57 0 000 3.13zM17.7 66.7h8a1.56 1.56 0 000-3.12h-8a1.56 1.56 0 100 3.12zM34.37 126a1.56 1.56 0 00-1.56-1.56h-8a1.57 1.57 0 000 3.13h8a1.57 1.57 0 001.56-1.57zM94.11 38.55h17.92a1.95 1.95 0 000-3.89H94.11a1.95 1.95 0 000 3.89zM80.17 108a2 2 0 000-3.9h-17.2a2 2 0 000 3.9zM38.69 118.67a2 2 0 00-2-2H19.54a2 2 0 100 3.9h17.19a2 2 0 001.96-1.9zM65.36 112.4c-13.28-.36-27.85 9.76-32.53 22.6s2.28 23.54 15.56 23.9 27.85-9.76 32.53-22.6-2.28-23.54-15.56-23.9zm-1.38 23.91a12.45 12.45 0 01-11.21 7.79c-4.58-.12-7-3.81-5.36-8.24s6.63-7.91 11.21-7.79 6.98 3.81 5.36 8.24z"/>
</svg>