<svg id="Layer_1" data-name="Layer 1" xmlns="http://www.w3.org/2000/svg" viewBox="0 0 600 800"><defs><style>.cls-1{fill:#34cdff;}.cls-2{fill:#fff;}</style></defs><title>motofretista-image-bg__logo</title><rect class="cls-1" width="600" height="800"/><g id="logo"><path class="cls-2" d="M197,550.29H194l-.11-26.86-9.43,26.9-3.2,0-9.6-26.82.11,26.86h-2.93l-.15-35.15h2.93L182.83,546l11-30.87,2.94,0Z"/><path class="cls-2" d="M224.72,534.3l0,6.63a10.24,10.24,0,0,1-2.38,7q-2.4,2.77-7.28,2.79T207.71,548a10.14,10.14,0,0,1-2.52-7l0-6.62q0-4.77,2.51-7.32c1.69-1.7,4.08-2.55,7.2-2.56a9.6,9.6,0,0,1,7.24,2.6A9.87,9.87,0,0,1,224.72,534.3Zm-2.9,7.15,0-7.13q0-7.29-6.8-7.25t-6.89,7.31l0,7.12a6.63,6.63,0,0,0,1.88,4.87,6.91,6.91,0,0,0,5.1,1.83,6.55,6.55,0,0,0,5-1.85A6.76,6.76,0,0,0,221.82,541.45Z"/><path class="cls-2" d="M235.22,548.62l-.83,2.16a7.58,7.58,0,0,1-4.26-2.54,7.72,7.72,0,0,1-1.33-4.71L228.68,515h2.93l0,10,6.29,0-1.25,2.67-5,0,.07,15.86Q231.76,547.53,235.22,548.62Z"/><path class="cls-2" d="M262.84,534.14l0,6.63a10.24,10.24,0,0,1-2.38,7q-2.4,2.78-7.28,2.79c-3.25,0-5.71-.9-7.38-2.76a10,10,0,0,1-2.52-6.94l0-6.62q0-4.77,2.52-7.32c1.68-1.7,4.08-2.55,7.19-2.57a9.66,9.66,0,0,1,7.25,2.61A9.87,9.87,0,0,1,262.84,534.14Zm-2.91,7.14,0-7.13q0-7.27-6.79-7.25-6.92,0-6.89,7.31l0,7.13a6.59,6.59,0,0,0,1.88,4.86,6.87,6.87,0,0,0,5.1,1.84,6.6,6.6,0,0,0,5-1.85A6.8,6.8,0,0,0,259.93,541.28Z"/><path class="cls-2" d="M294.21,549.87l-10.91,0-.15-35.2,9.86,0q5.92,0,9.06,3.08a11.14,11.14,0,0,1,3.15,8.27l.06,13.75Q305.33,549.83,294.21,549.87Zm8.14-9.57-.06-14.76q0-4.21-2.65-6.27a9.62,9.62,0,0,0-6.09-2l-7.45,0,.13,30.13,7.13,0Q302.38,547.33,302.35,540.3Z"/><path class="cls-2" d="M320,547.9a16.78,16.78,0,0,0,7.64-2.09l1.17,2.16a16.53,16.53,0,0,1-8.43,2.39q-9.13,0-9.16-7.29l0-10.29a7.88,7.88,0,0,1,2.62-6.34,10.48,10.48,0,0,1,7-2.29,9.7,9.7,0,0,1,6.8,2.21,8,8,0,0,1,2.46,6.19l0,6.53-15.94.92,0,3.06a4.18,4.18,0,0,0,2.06,3.91A7.12,7.12,0,0,0,320,547.9Zm7.13-11.32,0-4.37a5.12,5.12,0,0,0-1.22-3.53,5.44,5.44,0,0,0-2.52-1.75,9.53,9.53,0,0,0-2.62-.37,7.43,7.43,0,0,0-4.77,1.53,5.69,5.69,0,0,0-1.87,4.73l0,4.42Z"/><path class="cls-2" d="M339.2,549.68h-2.94l-.15-35.14h2.94Z"/><path class="cls-2" d="M350.85,515.67a1.59,1.59,0,0,1-.52,1.18,1.79,1.79,0,0,1-1.23.51,1.71,1.71,0,0,1-1.24-.53,1.67,1.67,0,0,1-.53-1.17,1.55,1.55,0,0,1,.52-1.16,1.74,1.74,0,0,1,1.26-.51,1.73,1.73,0,0,1,1.74,1.68Zm-.17,34h-2.94l-.11-25.15h2.94Z"/><path class="cls-2" d="M367.14,549.56l-4,0L355,524.46h3.1l7.07,22.21,6.93-22.27,3.09,0Z"/><path class="cls-2" d="M385.17,547.63a16.87,16.87,0,0,0,7.65-2.1l1.16,2.16a16.53,16.53,0,0,1-8.43,2.39q-9.12,0-9.16-7.29l0-10.29a7.88,7.88,0,0,1,2.62-6.34,10.48,10.48,0,0,1,7-2.29,9.7,9.7,0,0,1,6.8,2.21,8,8,0,0,1,2.46,6.19l0,6.53-15.93.92v3.06a4.2,4.2,0,0,0,2.06,3.91A7.21,7.21,0,0,0,385.17,547.63Zm7.13-11.33v-4.37a5.22,5.22,0,0,0-1.22-3.53,5.42,5.42,0,0,0-2.53-1.75,9.1,9.1,0,0,0-2.62-.36,7.37,7.37,0,0,0-4.77,1.52,5.69,5.69,0,0,0-1.86,4.73V537Z"/><path class="cls-2" d="M412.76,526.77a16.16,16.16,0,0,0-4-.48,7.7,7.7,0,0,0-3.7.89,2.76,2.76,0,0,0-1.64,2.54l.09,19.69h-2.94l-.11-25.16h2.94l-.15,1.76a9.54,9.54,0,0,1,6.49-2.19,20.48,20.48,0,0,1,3.83.39Z"/><path class="cls-2" d="M430,559.84l-.8-2.16a5,5,0,0,0,3.49-5.24l0-5.62c-1.28,2-3.59,3.08-6.91,3.09q-10,0-10-9.39l-.07-16.32h2.83l.07,16.82a6,6,0,0,0,1.86,4.78,7.41,7.41,0,0,0,5,1.56,8.1,8.1,0,0,0,5.16-1.58,5.73,5.73,0,0,0,2-4.82l0-9.89a14.75,14.75,0,0,1,.5-4.88,5.21,5.21,0,0,1,3.3-2.52l.79,1.9c-1.19.51-1.77,1.69-1.77,3.53l.1,23.24a8.19,8.19,0,0,1-1.23,4.83A7.9,7.9,0,0,1,430,559.84Z"/><path class="cls-2" d="M205.91,492.22a11.57,11.57,0,0,1-3.3,1.5,16.28,16.28,0,0,1-4.36.56,14.26,14.26,0,0,1-5.14-.76,3.13,3.13,0,0,1-2.15-2.64q-.89-7.51-1.49-12.16t-.74-8.15h-.45q-1.35,5-2.37,9.18T184,487.82c-.59,2.62-1.22,5.26-1.88,7.94s-1.43,5.63-2.31,8.88a18.47,18.47,0,0,1-3.18.73,26.2,26.2,0,0,1-3.81.31,11.27,11.27,0,0,1-5.85-1.19c-1.29-.79-1.7-2.24-1.25-4.35l11.93-43.55a11.43,11.43,0,0,1,3.63-2.4,16.69,16.69,0,0,1,7.05-1.29c3.15,0,5.52.46,7.1,1.39a6.29,6.29,0,0,1,2.94,4.57c.24,1.36.48,2.93.73,4.69s.48,3.58.7,5.46.43,3.74.63,5.59.37,3.51.53,5h.45q3.68-7.17,7.25-13.88T215,454.47a18.64,18.64,0,0,1,3.68-1.16,23.74,23.74,0,0,1,4.78-.48,15.82,15.82,0,0,1,6.87,1.23,3.76,3.76,0,0,1,2.45,3.54c0,1.14-.13,2.89-.37,5.25s-.53,5-.87,8-.71,6.09-1.12,9.39-.81,6.48-1.2,9.52-.76,5.83-1.13,8.37-.66,4.48-.89,5.84a14.57,14.57,0,0,1-3.44,1.25,20,20,0,0,1-4.31.39,11.64,11.64,0,0,1-5.47-1.1c-1.39-.73-1.91-2.19-1.56-4.35q1.47-9.3,2.92-16.73c1-5,1.73-9.11,2.28-12.47h-.45q-1.6,3.33-4.38,8.37T205.91,492.22Z"/><path class="cls-2" d="M239.33,478.92A35.24,35.24,0,0,1,244,467.14a33.31,33.31,0,0,1,7.81-8.6,33.76,33.76,0,0,1,10-5.27,37,37,0,0,1,11.48-1.81,30,30,0,0,1,10.71,1.77,19.56,19.56,0,0,1,7.83,5.24A18.31,18.31,0,0,1,296.1,467a28.26,28.26,0,0,1-.35,11.78,36.46,36.46,0,0,1-4.67,11.83,32.52,32.52,0,0,1-7.78,8.63,33.38,33.38,0,0,1-10.09,5.27,37.71,37.71,0,0,1-11.61,1.82,30.09,30.09,0,0,1-10.84-1.82A18,18,0,0,1,239,490.62,28.58,28.58,0,0,1,239.33,478.92Zm16,0q-1.67,7.77.81,11.61c1.65,2.56,4.31,3.83,8,3.83a13.89,13.89,0,0,0,9.74-3.86q4.13-3.86,5.79-11.62t-.78-11.52q-2.43-3.84-8.05-3.83a13.94,13.94,0,0,0-9.68,3.82Q257,471.13,255.37,478.89Z"/><path class="cls-2" d="M307.33,505q-3.82,0-5.6-2.12t-1-5.81l9.47-44.14,3.22-.48a31,31,0,0,1,4.16-.3,18.37,18.37,0,0,1,3.55.29,5.26,5.26,0,0,1,2.4,1.06,3.54,3.54,0,0,1,1.15,2.13,9.72,9.72,0,0,1-.24,3.59L317.22,493l20.42,0a9.34,9.34,0,0,1,.62,2.52,9.67,9.67,0,0,1-.18,3.28,8,8,0,0,1-2.55,4.83,6.89,6.89,0,0,1-4.31,1.42Z"/><path class="cls-2" d="M353.06,504.92q-3.84,0-5.61-2.13c-1.18-1.42-1.5-3.35-1-5.8L356,452.84c.67-.11,1.75-.27,3.22-.47a32.53,32.53,0,0,1,4.16-.31,19.2,19.2,0,0,1,3.55.29,5.32,5.32,0,0,1,2.4,1.07,3.48,3.48,0,0,1,1.14,2.13,9.63,9.63,0,0,1-.23,3.58L363,492.86l20.41,0a9.07,9.07,0,0,1,.62,2.52,9.72,9.72,0,0,1-.17,3.29,8.07,8.07,0,0,1-2.55,4.83,6.82,6.82,0,0,1-4.31,1.41Z"/><path class="cls-2" d="M413,504.21a28.85,28.85,0,0,1-3.14.51,32.08,32.08,0,0,1-4.07.27c-2.73,0-4.69-.43-5.86-1.31s-1.47-2.75-.85-5.59l2.47-11.53q-1.56-3.15-3.31-7t-3.4-7.85q-1.63-4-2.94-7.89a56.42,56.42,0,0,1-1.94-7.12,16.28,16.28,0,0,1,3.76-2.83,10.69,10.69,0,0,1,5.23-1.29,9.05,9.05,0,0,1,5.36,1.36c1.26.91,2.28,2.61,3.05,5.12l4.34,14.24h.53c1.21-1.77,2.29-3.38,3.22-4.83s1.86-2.9,2.76-4.36l2.85-4.53q1.49-2.34,3.39-5.42a20.71,20.71,0,0,1,7.66-1.64,7.38,7.38,0,0,1,5,1.57q1.85,1.57,1.17,4.74a10.51,10.51,0,0,1-1,2.47,35.31,35.31,0,0,1-3,4.41q-2.24,2.94-6.4,8t-11.15,13.16Z"/><path class="cls-2" d="M189.83,338.45a2.54,2.54,0,0,0-2.54-2.53l-21.36,0a2.54,2.54,0,1,0,0,5.08l21.36,0A2.54,2.54,0,0,0,189.83,338.45Z"/><path class="cls-2" d="M438.66,394.63a33.22,33.22,0,0,0-33.27-33.14c-.78,0-1.55,0-2.32.1l-17-36.69a9.39,9.39,0,0,0-1.84-2.64,5.43,5.43,0,0,0-4.75-2.86H378.2a9.31,9.31,0,0,0-1.75,0h-9.18l-.85-6.38a7.51,7.51,0,0,0-7.48-7.48l-22,0c4.58-6.72,8.44-11.88,9.83-12.37l.38,0h0a25.59,25.59,0,0,0,24.68-19.33h7.35A20.74,20.74,0,0,0,371.72,261a25.61,25.61,0,0,0-24.63-18.77h0a25.49,25.49,0,0,0-16.45,44.95c-32.9.66-51.21,14.85-56.53,19.73a7.49,7.49,0,0,0-3.5,6.34v.54a7.5,7.5,0,0,0,7.48,7.48h7.53A150.55,150.55,0,0,0,269.43,347l-9.21,0a5.07,5.07,0,0,0,.55-1.54L270,291.86a4.33,4.33,0,0,0-4.53-5.08l-50.78-.23a6.44,6.44,0,0,0-6.26,5l-9.18,53.59a4.48,4.48,0,0,0,.08,1.94l-14.48,0a3.38,3.38,0,0,0-3.36,3.37v.37a3.38,3.38,0,0,0,3.37,3.36l31.42-.06h.15l49.8-.09,15.32,0,80.72-.15c-23.48-18.86-46.91-14.28-46.91-14.28s5.18-8.54,11.38-18.3l10.39,0a5.39,5.39,0,0,0-1.36,3.56,5.45,5.45,0,0,0,5.44,5.42l26.71-.05a9.78,9.78,0,0,0,.79,2.68l10.88,23.45-4.17,4.18-37,.07a2.28,2.28,0,1,0,0,4.55l34-.06a1.89,1.89,0,0,1,1.43,1.81v.23a1.89,1.89,0,0,1-.63,1.39l-62.94.11a3.2,3.2,0,0,0,0,6.39L361,375l-.19.19h.25a2.15,2.15,0,0,1,2.14,2.14v.24a2.14,2.14,0,0,1-2.14,2.15h-1.77a2.76,2.76,0,0,0-.71-.09l-66.4.12a3.2,3.2,0,0,0,0,6.39l62.84-.12a3.14,3.14,0,0,1,1.25,2.49v0a3.14,3.14,0,0,1-3.13,3.14l-74.92-.53a3.62,3.62,0,0,0-3.61,3.62v1a3.64,3.64,0,0,0,3.62,3.61l65.56-.12A3.79,3.79,0,0,0,345,399a2.13,2.13,0,0,1,1.53,2v.26a2.14,2.14,0,0,1-1,1.82l-76.66.14a33.73,33.73,0,0,1-1.64,6.22,38.82,38.82,0,0,1-2.28,5.12l29-.06-.16.16,67.51-.12c-2.44,13.45,5.93,23.94,20.47,24.31,16.27.39,34.08-12,39.8-27.78a25,25,0,0,0,1.11-14.84l15.93,0C438.6,395.7,438.66,395.17,438.66,394.63Zm-36.43,16c-2,5.42-8.1,9.71-13.72,9.57s-8.56-4.65-6.59-10.08,8.11-9.71,13.72-9.57S404.21,405.19,402.23,410.62Z"/><path class="cls-2" d="M406,351.28a9.33,9.33,0,0,0,1.6-.17l0-20.1a8.41,8.41,0,0,0-1.59-.16,9.6,9.6,0,0,0-9.56,9.59v1.28A9.6,9.6,0,0,0,406,351.28Z"/><path class="cls-2" d="M298.31,375.1a3.12,3.12,0,0,0,3.11-3.12h0a3.11,3.11,0,0,0-3.12-3.1l-23.22,0A3.12,3.12,0,0,0,272,372h0a3.11,3.11,0,0,0,3.12,3.1Z"/><path class="cls-2" d="M323.67,363.8a1.92,1.92,0,1,0,0-3.83l-9.81,0a1.92,1.92,0,0,0,0,3.83Z"/><path class="cls-2" d="M185,324.23l9.82,0a1.92,1.92,0,0,0,0-3.83l-9.81,0a1.92,1.92,0,0,0,0,3.83Z"/><path class="cls-2" d="M205.61,396.85a1.91,1.91,0,0,0-1.92-1.91h-9.82a1.93,1.93,0,0,0-1.91,1.92,1.91,1.91,0,0,0,1.92,1.91h9.82A1.93,1.93,0,0,0,205.61,396.85Z"/><path class="cls-2" d="M278.6,289.56l22,0a2.38,2.38,0,1,0,0-4.76l-21.95,0a2.38,2.38,0,0,0,0,4.76Z"/><path class="cls-2" d="M261.68,374.69a2.4,2.4,0,1,0,0-4.79l-21.07,0a2.4,2.4,0,0,0,0,4.79Z"/><path class="cls-2" d="M210.88,387.85a2.4,2.4,0,0,0-2.4-2.39l-21.07,0a2.4,2.4,0,0,0,0,4.79l21.07,0A2.4,2.4,0,0,0,210.88,387.85Z"/><path class="cls-2" d="M243.55,380.11c-16.27-.41-34.1,12-39.81,27.77s2.85,28.83,19.12,29.24,34.1-12,39.81-27.76S259.82,380.52,243.55,380.11Zm-1.64,29.3c-2,5.43-8.1,9.71-13.72,9.57s-8.56-4.65-6.58-10.08,8.1-9.71,13.71-9.57S243.88,404,241.91,409.41Z"/></g></svg>